<?xml version="1.0" encoding="utf-8"?>
<!-- Generator: Adobe Illustrator 25.2.3, SVG Export Plug-In . SVG Version: 6.00 Build 0)  -->
<svg version="1.1" xmlns="http://www.w3.org/2000/svg" xmlns:xlink="http://www.w3.org/1999/xlink" x="0px" y="0px"
	 viewBox="0 0 48 64" style="enable-background:new 0 0 48 64;" xml:space="preserve">
<style type="text/css">
	.st0{fill:#FFFFFF;}
	.st1{fill:#FF0000;}
	.st2{fill:#FFEB33;}
	.st3{fill:#00A99D;}
	.st4{fill:#009245;}
	.st5{fill:#0071BC;}
</style>
<g id="england">
</g>
<g id="spain">
</g>
<g id="champions">
</g>
<g id="emirates">
	<path d="M17,37.6h28.99c-0.04,1.54-0.27,3.04-0.67,4.5c-1.23,4.48-4.09,8.42-8.11,10.98L24,61.47l-7-4.45V37.6z"/>
	<polygon class="st4" points="46,15.6 46,21.6 17,21.6 17,2.1 46,2.1 	"/>
	<path class="st0" d="M46,21.6v15.48c0,0.17,0,0.35-0.01,0.52H17v-16H46z"/>
	<path class="st1" d="M2,2.1v13.5v6v15.48c0,0.17,0,0.35,0.01,0.52c0.04,1.54,0.27,3.04,0.67,4.5c1.23,4.48,4.09,8.42,8.11,10.98
		L17,57.02V37.6v-16V2.1H2z"/>
</g>
<g id="japan">
</g>
<g id="usa">
</g>
<g id="belgium">
</g>
</svg>
