<?xml version="1.0" encoding="utf-8"?>
<!-- Generator: Adobe Illustrator 25.2.3, SVG Export Plug-In . SVG Version: 6.00 Build 0)  -->
<svg version="1.1" xmlns="http://www.w3.org/2000/svg" xmlns:xlink="http://www.w3.org/1999/xlink" x="0px" y="0px"
	 viewBox="0 0 48 64" style="enable-background:new 0 0 48 64;" xml:space="preserve">
<style type="text/css">
	.st0{fill:#FFFFFF;}
	.st1{fill:#FF0000;}
	.st2{fill:#FFEB33;}
</style>
<g id="Capa_1">
	<path class="st0" d="M46,25.5v11.98c0,6.49-3.32,12.52-8.79,16l-10.96,6.96V25.5H46z M26.25,2.5V21H46V2.5H26.25z M2,25.5v11.98
		c0,6.49,3.32,12.52,8.79,16l10.96,6.96V25.5H2z M2,2.5V21h19.75V2.5H2z"/>
	<polygon class="st1" points="26.25,21 26.25,2.5 21.75,2.5 21.75,21 2,21 2,25.5 21.75,25.5 21.75,60.44 24,61.87 26.25,60.44 
		26.25,25.5 46,25.5 46,21 	"/>
</g>
<g id="Capa_2">
</g>
<g id="Capa_3">
</g>
</svg>
