<?xml version="1.0" encoding="utf-8"?>
<!-- Generator: Adobe Illustrator 25.2.3, SVG Export Plug-In . SVG Version: 6.00 Build 0)  -->
<svg version="1.1" xmlns="http://www.w3.org/2000/svg" xmlns:xlink="http://www.w3.org/1999/xlink" x="0px" y="0px"
	 viewBox="0 0 48 64" style="enable-background:new 0 0 48 64;" xml:space="preserve">
<style type="text/css">
	.st0{fill:#FFFFFF;}
	.st1{fill:#FF0000;}
	.st2{fill:#FFEB33;}
	.st3{fill:#009245;}
</style>
<g id="Capa_1">
</g>
<g id="Capa_2">
</g>
<g id="Capa_4">
	<path d="M17,37h28.99c-0.04,1.54-0.27,3.04-0.67,4.5c-1.23,4.48-4.09,8.42-8.11,10.98L24,60.87l-7-4.45V37z"/>
	<polygon class="st3" points="46,15 46,21 17,21 17,1.5 46,1.5 	"/>
	<path class="st0" d="M46,21v15.48c0,0.17,0,0.35-0.01,0.52H17V21H46z"/>
	<path class="st1" d="M2,1.5V15v6v15.48c0,0.17,0,0.35,0.01,0.52c0.04,1.54,0.27,3.04,0.67,4.5c1.23,4.48,4.09,8.42,8.11,10.98
		L17,56.42V37V21V1.5H2z"/>
</g>
<g id="Capa_5">
</g>
<g id="Capa_3">
</g>
</svg>
