<?xml version="1.0" encoding="utf-8"?>
<!-- Generator: Adobe Illustrator 25.2.3, SVG Export Plug-In . SVG Version: 6.00 Build 0)  -->
<svg version="1.1" xmlns="http://www.w3.org/2000/svg" xmlns:xlink="http://www.w3.org/1999/xlink" x="0px" y="0px"
	 viewBox="0 0 48 64" style="enable-background:new 0 0 48 64;" xml:space="preserve">
<style type="text/css">
	.st0{fill:#FFFFFF;}
	.st1{fill:#FF0000;}
	.st2{fill:#FFEB33;}
	.st3{fill:#00A99D;}
	.st4{fill:#009245;}
	.st5{fill:#0071BC;}
</style>
<g id="england">
	<path class="st0" d="M-28,25.5v11.98c0,6.49-3.32,12.52-8.79,16l-10.96,6.96V25.5H-28z M-47.75,2.5V21H-28V2.5H-47.75z M-72,25.5
		v11.98c0,6.49,3.32,12.52,8.79,16l10.96,6.96V25.5H-72z M-72,2.5V21h19.75V2.5H-72z"/>
	<polygon class="st1" points="-47.75,21 -47.75,2.5 -52.25,2.5 -52.25,21 -72,21 -72,25.5 -52.25,25.5 -52.25,60.44 -50,61.87 
		-47.75,60.44 -47.75,25.5 -28,25.5 -28,21 	"/>
</g>
<g id="spain">
	<path class="st2" d="M46,19v17.48c0,1.72-0.23,3.4-0.68,5.02H2.68C2.23,39.88,2,38.2,2,36.48V19H46z"/>
	<rect x="2" y="1.5" class="st3" width="44" height="17.5"/>
	<path class="st1" d="M10.79,52.48L24,60.87l13.21-8.39c4.02-2.56,6.88-6.5,8.11-10.98H2.68C3.91,45.98,6.77,49.92,10.79,52.48z"/>
</g>
<g id="champions">
	<path d="M105.52,61.07c-6.36,0.56-14.73,0.75-21.11-0.05c-0.06-0.15-0.13-0.3-0.19-0.44c0.99-1,1.97-2,2.97-2.99
		c2.6-2.57,2.69-2.81,0.75-5.95c-3.71-6.02-7.26-12.12-9.26-18.95c-1.82-6.21-3.3-12.52-3.36-19.04c-0.03-3.34,0.78-6.5,3.05-9.13
		c1.5-1.74,4.3-2.54,6.38-1.78c1.74,0.64,3.01,2.84,3.01,5.17c0,1.12-0.37,2.03-1.36,2.61c-1.16,0.67-2.42,1.21-3.49,2.01
		c-0.5,0.38-0.91,1.24-0.89,1.87c0.02,0.52,0.72,1.01,1.13,1.51c0.1-0.07,0.2-0.14,0.3-0.21c-0.01-0.12,0.02-0.25-0.03-0.35
		c-0.97-2.04-0.98-2.11,1.12-2.93c6.29-2.45,14.61-2.51,20.92-0.07c0.38,0.14,0.73,0.35,1.09,0.53c0.85,0.45,1.07,1.03,0.4,1.83
		c-0.19,0.23-0.3,0.53-0.45,0.79c0.11,0.11,0.23,0.21,0.34,0.32c0.41-0.46,1.17-0.93,1.16-1.39c-0.02-0.69-0.4-1.55-0.92-2
		c-0.76-0.66-1.81-0.97-2.69-1.5c-1.99-1.2-2.54-2.22-2.09-4.34c0.4-1.89,1.4-3.42,3.41-3.97c2.69-0.74,5.54,0.57,7.14,3.34
		c1.51,2.61,1.88,5.49,1.81,8.45c-0.17,6.3-1.45,12.41-3.45,18.34c-1.06,3.13-2.56,6.13-4.04,9.11c-1.82,3.65-3.78,7.24-5.76,10.81
		c-0.99,1.79-0.97,2.88,0.47,4.35c1.19,1.21,2.43,2.38,3.65,3.57C105.57,60.63,105.54,60.69,105.52,61.07z M107.03,40.33
		c0.06,0.02,0.12,0.05,0.19,0.07c0.12-0.22,0.26-0.44,0.34-0.67c2.53-7.07,4.37-14.33,5.53-21.75c0.54-3.43,0.78-6.86-0.67-10.2
		c-1.36-3.14-5.06-4.3-7.85-2.39c-1.77,1.21-1.69,2.33,0.16,3.43c1.15,0.68,2.32,1.4,3.27,2.32c2.16,2.1,1.66,4.68-1.03,5.96
		c-0.12,0.06-0.21,0.15-0.34,0.24c-0.03,1.24,0.7,1.8,1.74,2.24c2.17,0.92,2.29,0.97,1.99,3.29c-0.47,3.69-1.05,7.36-1.73,11.02
		C108.25,36.07,107.58,38.19,107.03,40.33z M82.63,40.35c0.1-0.03,0.19-0.06,0.29-0.08c-0.1-0.4-0.17-0.81-0.3-1.2
		c-1.72-5.55-2.8-11.21-3.19-17.02c-0.07-1.03,0.19-1.62,1.13-1.97c0.42-0.16,0.79-0.44,1.22-0.57c1.1-0.35,1.5-1.14,1.57-2.18
		c-3.27-1.41-3.64-4.32-0.89-6.51c1.02-0.81,2.11-1.53,3.13-2.33c1.32-1.04,1.31-1.86-0.01-2.88c-2.78-2.17-6.9-1.1-7.9,2.35
		c-0.72,2.5-1.13,5.24-0.93,7.81c0.53,6.81,2.07,13.46,4.27,19.95C81.55,37.26,82.09,38.8,82.63,40.35z"/>
</g>
<g id="emirates">
	<path d="M151,37.6h28.99c-0.04,1.54-0.27,3.04-0.67,4.5c-1.23,4.48-4.09,8.42-8.11,10.98L158,61.47l-7-4.45V37.6z"/>
	<polygon class="st4" points="180,15.6 180,21.6 151,21.6 151,2.1 180,2.1 	"/>
	<path class="st0" d="M180,21.6v15.48c0,0.17,0,0.35-0.01,0.52H151v-16H180z"/>
	<path class="st1" d="M136,2.1v13.5v6v15.48c0,0.17,0,0.35,0.01,0.52c0.04,1.54,0.27,3.04,0.67,4.5c1.23,4.48,4.09,8.42,8.11,10.98
		l6.21,3.94V37.6v-16V2.1H136z"/>
</g>
<g id="japan">
	<path class="st0" d="M193,1.5V15v21.48c0,1.72,0.23,3.4,0.68,5.02c1.23,4.48,4.09,8.42,8.11,10.98L215,60.87l13.21-8.39
		c4.02-2.56,6.88-6.5,8.11-10.98c0.45-1.62,0.68-3.3,0.68-5.02V15V1.5H193z"/>
	<path class="st1" d="M227.5,28.5c0,6.9-5.6,12.5-12.5,12.5s-12.5-5.6-12.5-12.5S208.1,16,215,16S227.5,21.6,227.5,28.5z"/>
</g>
<g id="usa">
	<path class="st1" d="M253.54,41.54h42.92c-0.04,0.19-0.09,0.37-0.14,0.56c-0.59,2.13-1.54,4.14-2.82,5.94h-37
		c-1.28-1.8-2.23-3.81-2.82-5.94C253.63,41.91,253.58,41.73,253.54,41.54z M268,57.02l7,4.45l10.91-6.93h-21.82L268,57.02z
		 M276,22.04h21V21.6v-6v-0.06h-21V22.04z M276,2.1v6.94h21V2.1H276z M253,28.54V32v3.04h44v-6.5h-21H253z"/>
	<polygon class="st5" points="268,2.1 253,2.1 253,9.04 253,15.54 253,15.6 253,21.6 253,22.04 253,28.54 276,28.54 276,22.04 
		276,15.54 276,9.04 276,2.1 	"/>
	<path class="st0" d="M256.5,48.04h37c-1.4,1.98-3.18,3.7-5.29,5.04l-2.3,1.46h-21.82l-2.3-1.46
		C259.68,51.74,257.9,50.02,256.5,48.04z M276,28.54h21v-6.5h-21V28.54z M276,9.04v6.5h21v-6.5H276z M253,37.08
		c0,0.17,0,0.35,0.01,0.52c0.03,1.34,0.21,2.66,0.53,3.94h42.92c0.32-1.28,0.5-2.6,0.53-3.94c0.01-0.17,0.01-0.35,0.01-0.52v-2.04
		h-44V37.08z"/>
</g>
<g id="belgium">
	<path class="st1" d="M363,15v21.48c0,1.72-0.23,3.4-0.68,5.02c-1.23,4.48-4.09,8.42-8.11,10.98L350,55.15V1.5h13V15z"/>
	<polygon class="st2" points="350,1.5 350,55.15 341,60.87 332,55.15 332,1.5 	"/>
	<path d="M332,1.5v53.65l-4.21-2.67c-4.02-2.56-6.88-6.5-8.11-10.98c-0.45-1.62-0.68-3.3-0.68-5.02V15V1.5H332z"/>
</g>
</svg>
